Coordinates
version=1
nRows=4
nColumns=63
inDegrees=yes

Units are S.I. units (second, meters, Newtons, ...)
If the header above contains a line with 'inDegrees', this indicates whether rotational values are in degrees (yes) or radians (no).

endheader
time	pelvis_tilt	pelvis_list	pelvis_rotation	pelvis_tx	pelvis_ty	pelvis_tz	hip_flexion_r	hip_adduction_r	hip_rotation_r	knee_angle_r	knee_angle_r_beta	ankle_angle_r	subtalar_angle_r	mtp_angle_r	hip_flexion_l	hip_adduction_l	hip_rotation_l	knee_angle_l	knee_angle_l_beta	ankle_angle_l	subtalar_angle_l	mtp_angle_l	L5_S1_Flex_Ext	L5_S1_Lat_Bending	L5_S1_axial_rotation	L4_L5_Flex_Ext	L4_L5_Lat_Bending	L4_L5_axial_rotation	L3_L4_Flex_Ext	L3_L4_Lat_Bending	L3_L4_axial_rotation	L2_L3_Flex_Ext	L2_L3_Lat_Bending	L2_L3_axial_rotation	L1_L2_Flex_Ext	L1_L2_Lat_Bending	L1_L2_axial_rotation	L1_T12_Flex_Ext	L1_T12_Lat_Bending	L1_T12_axial_rotation	Abs_r3	Abs_r2	Abs_r1	Abs_t1	Abs_t2	neck_flexion	neck_bending	neck_rotation	arm_flex_r	arm_add_r	arm_rot_r	elbow_flex_r	pro_sup_r	wrist_flex_r	wrist_dev_r	arm_flex_l	arm_add_l	arm_rot_l	elbow_flex_l	pro_sup_l	wrist_flex_l	wrist_dev_l
      1.40000000	     -3.46454524	     -2.52455129	     96.64623725	      0.29116821	      0.91673375	      0.69065571	     -7.55694132	     -1.43418801	     -2.96920539	      4.31813130	      0.07536561	     28.52528759	      6.56981327	      0.00000000	     -6.41235653	     -0.64205009	      5.08993347	      2.61110639	      0.04557240	     27.20121250	     -1.98953819	      0.00000000	     -0.06387927	     -0.39281880	      0.88263431	     -0.11863018	     -0.52244901	      0.93779896	     -0.10494725	     -0.95509964	      0.93779896	     -0.07300761	     -0.95509964	      0.77230502	     -0.05931829	     -0.80103610	      0.71714038	     -0.03650061	     -0.60847633	      0.66197573	     -0.45628321	     -4.44364486	      4.90894725	      0.00000000	      0.00000000	     12.11674144	      4.66811627	    -16.32042077	     11.91834950	     -8.36078390	     -2.69478831	    117.66986198	     82.10332937	     -8.38225929	     12.29152393	     22.16159255	    -11.38072159	      9.91879369	    107.59983292	     82.19702758	    -14.32844525	      7.17454444
      1.42000000	     -3.10665571	     -2.58553565	     96.52567846	      0.29030520	      0.91658031	      0.68881958	     -7.18776328	     -1.18664787	     -4.24336647	      4.82982733	      0.08429639	     29.18033310	      8.38653911	      0.00000000	     -6.31943616	     -0.94592124	      4.01550855	      2.82065277	      0.04922968	     27.85097086	     -0.80423163	      0.00000000	     -0.05058422	     -0.35787152	      1.02011281	     -0.09393996	     -0.47596912	      1.08386986	     -0.08310482	     -0.87012881	      1.08386986	     -0.05781271	     -0.87012881	      0.89259871	     -0.04697251	     -0.72977160	      0.82884166	     -0.02890383	     -0.55434298	      0.76508461	     -0.36131805	     -4.04831419	      5.67356144	      0.00000000	      0.00000000	     12.32331480	      4.39157576	    -17.66592222	     13.07844374	    -10.26767898	     -4.35388789	    121.67243159	     78.40455939	    -10.91105892	     13.46921475	     24.93818287	    -11.17482342	      9.55893311	    109.55453110	     81.65266291	    -13.99665932	      5.83467381
      1.44000000	     -2.69049479	     -2.53496343	     96.69436962	      0.28905798	      0.91677943	      0.68736591	     -6.85653668	     -0.78369265	     -4.71407747	      5.37634099	      0.09383485	     29.55078556	      8.63836082	      0.00000000	     -6.25767275	     -1.33193173	      3.85418494	      3.01725959	      0.05266111	     28.51535813	     -0.37243367	      0.00000000	     -0.05570737	     -0.30106535	      0.97921724	     -0.10345415	     -0.40041692	      1.04041832	     -0.09152163	     -0.73201030	      1.04041832	     -0.06366795	     -0.73201030	      0.85681509	     -0.05172986	     -0.61393247	      0.79561401	     -0.03183119	     -0.46635023	      0.73441293	     -0.39791215	     -3.40571150	      5.44611253	      0.00000000	      0.00000000	     12.89153513	      4.37117398	    -17.46222300	     14.46407655	    -11.96428499	     -5.80482911	    124.18728289	     79.17694275	    -11.20126328	     12.85146388	     26.98558361	    -11.28575579	      8.47832334	    111.40510092	     81.35433510	    -13.68892611	      4.27652171
      1.46000000	     -2.20446028	     -2.43789908	     97.21488399	      0.28722477	      0.91729976	      0.68568873	     -6.70560727	     -0.26464311	     -5.85656964	      5.64192635	      0.09847019	     29.72719007	      9.35632577	      0.00000000	     -6.10224231	     -1.84325087	      3.27134991	      3.38629751	      0.05910204	     29.55314955	      1.22052008	      0.00000000	     -0.04318976	     -0.22582367	      0.90102530	     -0.08020769	     -0.30034548	      0.95733938	     -0.07095645	     -0.54906767	      0.95733938	     -0.04936157	     -0.54906767	      0.78839713	     -0.04010601	     -0.46049963	      0.73208305	     -0.02467863	     -0.34980087	      0.67576897	     -0.30850010	     -2.55456253	      5.01123239	      0.00000000	      0.00000000	     12.76848838	      4.09554798	    -17.13443433	     15.36482846	    -13.69867048	     -7.26807834	    125.99473544	     83.44052835	    -11.61718702	     12.29074669	     28.44899983	    -11.34527153	      7.56846713	    112.18930551	     80.11191634	    -12.43414844	      0.27655383
